<svg width="34" height="34" viewBox="0 0 34 34" fill="none" xmlns="http://www.w3.org/2000/svg">
<path d="M18.7953 5.96259C18.3705 5.55787 17.6978 5.57423 17.2931 5.99912C16.8884 6.42402 16.9048 7.09655 17.3297 7.50128L26.1858 15.9369L5.3125 15.9369C4.7257 15.9369 4.25 16.4127 4.25 16.9994C4.25 17.5862 4.7257 18.0619 5.3125 18.0619L26.1859 18.0619L17.3297 26.4978C16.9048 26.9025 16.8884 27.5751 17.2931 28C17.6978 28.4249 18.3705 28.4413 18.7953 28.0365L29.3054 18.0254C29.5447 17.7974 29.6864 17.5066 29.7303 17.2044C29.7432 17.1381 29.75 17.0696 29.75 16.9994C29.75 16.9293 29.7432 16.8606 29.7302 16.7942C29.6862 16.4921 29.5446 16.2016 29.3054 15.9738L18.7953 5.96259Z" fill="white"/>
</svg>
