<svg width="34" height="34" viewBox="0 0 34 34" fill="none" xmlns="http://www.w3.org/2000/svg">
<path d="M15.2047 28.0374C15.6295 28.4421 16.3022 28.4258 16.7069 28.0009C17.1116 27.576 17.0952 26.9035 16.6703 26.4987L7.81419 18.0631L28.6875 18.0631C29.2743 18.0631 29.75 17.5873 29.75 17.0006C29.75 16.4138 29.2743 15.9381 28.6875 15.9381L7.81405 15.9381L16.6703 7.50224C17.0952 7.0975 17.1116 6.42486 16.7069 6.00001C16.3021 5.57515 15.6295 5.55871 15.2047 5.96346L4.69455 15.9746C4.45528 16.2026 4.31361 16.4934 4.26969 16.7956C4.2568 16.8619 4.25 16.9304 4.25 17.0006C4.25 17.0707 4.2568 17.1394 4.26984 17.2058C4.31375 17.5079 4.45542 17.7984 4.69455 18.0262L15.2047 28.0374Z" fill="white"/>
</svg>
