<svg width="307" height="51" viewBox="0 0 307 51" fill="none" xmlns="http://www.w3.org/2000/svg">
<path d="M53.7 36V16.92H56.4V20.016H56.544C56.736 19.608 57.048 19.14 57.48 18.612C57.912 18.06 58.5 17.58 59.244 17.172C59.988 16.764 60.924 16.56 62.052 16.56C63.492 16.56 64.704 16.932 65.688 17.676C66.696 18.396 67.428 19.392 67.884 20.664H67.92C68.424 19.584 69.168 18.636 70.152 17.82C71.136 16.98 72.456 16.56 74.112 16.56C76.128 16.56 77.7 17.256 78.828 18.648C79.956 20.04 80.52 21.876 80.52 24.156V36H77.856V24.264C77.856 22.608 77.472 21.312 76.704 20.376C75.936 19.416 74.868 18.936 73.5 18.936C72.3 18.936 71.328 19.272 70.584 19.944C69.84 20.592 69.3 21.42 68.964 22.428C68.628 23.436 68.46 24.468 68.46 25.524V36H65.76V24.264C65.76 22.608 65.388 21.312 64.644 20.376C63.9 19.416 62.832 18.936 61.44 18.936C60.24 18.936 59.268 19.272 58.524 19.944C57.78 20.592 57.24 21.432 56.904 22.464C56.568 23.472 56.4 24.492 56.4 25.524V36H53.7ZM97.9974 36.36C96.4614 36.36 95.1294 36.084 94.0014 35.532C92.8734 34.956 91.9494 34.188 91.2294 33.228C90.5094 32.268 89.9694 31.2 89.6094 30.024C89.2734 28.848 89.1054 27.66 89.1054 26.46C89.1054 25.26 89.2734 24.072 89.6094 22.896C89.9694 21.72 90.5094 20.652 91.2294 19.692C91.9494 18.732 92.8494 17.976 93.9294 17.424C95.0334 16.848 96.3414 16.56 97.8534 16.56C99.4374 16.56 100.841 16.932 102.065 17.676C103.313 18.42 104.285 19.524 104.981 20.988C105.701 22.428 106.061 24.24 106.061 26.424V27.216H91.8414C91.8894 28.44 92.1534 29.568 92.6334 30.6C93.1374 31.632 93.8334 32.46 94.7214 33.084C95.6334 33.708 96.7254 34.02 97.9974 34.02C99.0534 34.02 99.9294 33.84 100.625 33.48C101.321 33.096 101.849 32.664 102.209 32.184C102.593 31.68 102.857 31.248 103.001 30.888C103.169 30.528 103.253 30.348 103.253 30.348H105.809C105.809 30.348 105.749 30.552 105.629 30.96C105.509 31.344 105.293 31.836 104.981 32.436C104.669 33.036 104.213 33.636 103.613 34.236C103.037 34.836 102.293 35.34 101.381 35.748C100.469 36.156 99.3414 36.36 97.9974 36.36ZM91.8774 25.056H103.361C103.289 23.592 102.989 22.416 102.461 21.528C101.957 20.616 101.297 19.956 100.481 19.548C99.6654 19.14 98.7894 18.936 97.8534 18.936C96.1494 18.936 94.7694 19.5 93.7134 20.628C92.6574 21.732 92.0454 23.208 91.8774 25.056ZM114.836 36V8.64H117.536V20.088H117.716C117.884 19.728 118.184 19.272 118.616 18.72C119.048 18.144 119.648 17.64 120.416 17.208C121.208 16.776 122.192 16.56 123.368 16.56C124.76 16.56 125.948 16.884 126.932 17.532C127.916 18.18 128.672 19.056 129.2 20.16C129.728 21.264 129.992 22.512 129.992 23.904V36H127.292V24.048C127.292 22.584 126.896 21.372 126.104 20.412C125.336 19.428 124.208 18.936 122.72 18.936C121.496 18.936 120.5 19.248 119.732 19.872C118.988 20.496 118.436 21.3 118.076 22.284C117.716 23.268 117.536 24.276 117.536 25.308V36H114.836ZM147.778 36.36C146.266 36.36 144.934 36.084 143.782 35.532C142.654 34.98 141.694 34.236 140.902 33.3C140.134 32.364 139.558 31.308 139.174 30.132C138.79 28.932 138.598 27.708 138.598 26.46C138.598 25.188 138.79 23.964 139.174 22.788C139.558 21.612 140.134 20.556 140.902 19.62C141.694 18.684 142.654 17.94 143.782 17.388C144.934 16.836 146.266 16.56 147.778 16.56C149.29 16.56 150.622 16.836 151.774 17.388C152.926 17.94 153.886 18.684 154.654 19.62C155.422 20.556 155.998 21.612 156.382 22.788C156.79 23.964 156.994 25.188 156.994 26.46C156.994 27.708 156.79 28.932 156.382 30.132C155.998 31.308 155.422 32.364 154.654 33.3C153.886 34.236 152.926 34.98 151.774 35.532C150.622 36.084 149.29 36.36 147.778 36.36ZM147.778 33.948C149.194 33.948 150.382 33.588 151.342 32.868C152.302 32.148 153.022 31.224 153.502 30.096C154.006 28.944 154.258 27.732 154.258 26.46C154.258 25.188 154.006 23.988 153.502 22.86C153.022 21.708 152.302 20.772 151.342 20.052C150.382 19.332 149.194 18.972 147.778 18.972C146.362 18.972 145.174 19.332 144.214 20.052C143.254 20.772 142.534 21.708 142.054 22.86C141.574 23.988 141.334 25.188 141.334 26.46C141.334 27.732 141.574 28.944 142.054 30.096C142.534 31.224 143.254 32.148 144.214 32.868C145.174 33.588 146.362 33.948 147.778 33.948ZM164.718 43.02C164.19 43.02 163.758 42.996 163.422 42.948C163.086 42.924 162.918 42.912 162.918 42.912V40.572C162.918 40.572 163.098 40.584 163.458 40.608C163.842 40.656 164.238 40.68 164.646 40.68C166.11 40.68 167.322 40.32 168.282 39.6C169.242 38.88 170.034 37.752 170.658 36.216L163.206 16.92H166.014L171.99 32.724L178.002 16.92H180.846L173.214 36.468C172.326 38.7 171.186 40.344 169.794 41.4C168.426 42.48 166.734 43.02 164.718 43.02ZM188.419 36V16.92H191.119V20.016H191.263C191.455 19.608 191.767 19.14 192.199 18.612C192.631 18.06 193.219 17.58 193.963 17.172C194.707 16.764 195.643 16.56 196.771 16.56C198.211 16.56 199.423 16.932 200.407 17.676C201.415 18.396 202.147 19.392 202.603 20.664H202.639C203.143 19.584 203.887 18.636 204.871 17.82C205.855 16.98 207.175 16.56 208.831 16.56C210.847 16.56 212.419 17.256 213.547 18.648C214.675 20.04 215.239 21.876 215.239 24.156V36H212.575V24.264C212.575 22.608 212.191 21.312 211.423 20.376C210.655 19.416 209.587 18.936 208.219 18.936C207.019 18.936 206.047 19.272 205.303 19.944C204.559 20.592 204.019 21.42 203.683 22.428C203.347 23.436 203.179 24.468 203.179 25.524V36H200.479V24.264C200.479 22.608 200.107 21.312 199.363 20.376C198.619 19.416 197.551 18.936 196.159 18.936C194.959 18.936 193.987 19.272 193.243 19.944C192.499 20.592 191.959 21.432 191.623 22.464C191.287 23.472 191.119 24.492 191.119 25.524V36H188.419ZM225.986 13.248C225.434 13.248 224.978 13.056 224.618 12.672C224.258 12.288 224.078 11.844 224.078 11.34C224.078 10.812 224.258 10.368 224.618 10.008C224.978 9.624 225.434 9.432 225.986 9.432C226.514 9.432 226.958 9.624 227.318 10.008C227.702 10.368 227.894 10.812 227.894 11.34C227.894 11.868 227.702 12.324 227.318 12.708C226.958 13.068 226.514 13.248 225.986 13.248ZM224.654 36V16.92H227.354V36H224.654ZM236.752 36V16.92H239.452V20.088H239.632C239.8 19.728 240.1 19.272 240.532 18.72C240.964 18.144 241.564 17.64 242.332 17.208C243.1 16.776 244.072 16.56 245.248 16.56C246.664 16.56 247.864 16.884 248.848 17.532C249.832 18.18 250.576 19.056 251.08 20.16C251.608 21.264 251.872 22.512 251.872 23.904V36H249.208V24.048C249.208 22.584 248.812 21.372 248.02 20.412C247.252 19.428 246.112 18.936 244.6 18.936C243.4 18.936 242.416 19.248 241.648 19.872C240.904 20.496 240.352 21.3 239.992 22.284C239.632 23.268 239.452 24.276 239.452 25.308V36H236.752ZM269.665 36.36C268.153 36.36 266.821 36.084 265.669 35.532C264.541 34.98 263.581 34.236 262.789 33.3C262.021 32.364 261.445 31.308 261.061 30.132C260.677 28.932 260.485 27.708 260.485 26.46C260.485 25.188 260.677 23.964 261.061 22.788C261.445 21.612 262.021 20.556 262.789 19.62C263.581 18.684 264.541 17.94 265.669 17.388C266.821 16.836 268.153 16.56 269.665 16.56C271.177 16.56 272.509 16.836 273.661 17.388C274.813 17.94 275.773 18.684 276.541 19.62C277.309 20.556 277.885 21.612 278.269 22.788C278.677 23.964 278.881 25.188 278.881 26.46C278.881 27.708 278.677 28.932 278.269 30.132C277.885 31.308 277.309 32.364 276.541 33.3C275.773 34.236 274.813 34.98 273.661 35.532C272.509 36.084 271.177 36.36 269.665 36.36ZM269.665 33.948C271.081 33.948 272.269 33.588 273.229 32.868C274.189 32.148 274.909 31.224 275.389 30.096C275.893 28.944 276.145 27.732 276.145 26.46C276.145 25.188 275.893 23.988 275.389 22.86C274.909 21.708 274.189 20.772 273.229 20.052C272.269 19.332 271.081 18.972 269.665 18.972C268.249 18.972 267.061 19.332 266.101 20.052C265.141 20.772 264.421 21.708 263.941 22.86C263.461 23.988 263.221 25.188 263.221 26.46C263.221 27.732 263.461 28.944 263.941 30.096C264.421 31.224 265.141 32.148 266.101 32.868C267.061 33.588 268.249 33.948 269.665 33.948ZM286.605 43.02C286.077 43.02 285.645 42.996 285.309 42.948C284.973 42.924 284.805 42.912 284.805 42.912V40.572C284.805 40.572 284.985 40.584 285.345 40.608C285.729 40.656 286.125 40.68 286.533 40.68C287.997 40.68 289.209 40.32 290.169 39.6C291.129 38.88 291.921 37.752 292.545 36.216L285.093 16.92H287.901L293.877 32.724L299.889 16.92H302.733L295.101 36.468C294.213 38.7 293.073 40.344 291.681 41.4C290.313 42.48 288.621 43.02 286.605 43.02Z" fill="#386641"/>
<path d="M17.1311 9.375C9.70975 9.375 3.69358 15.3912 3.69358 22.8125C3.69358 24.8423 4.14449 26.7699 4.9525 28.4982C4.49736 30.2863 3.98885 32.28 3.6549 33.5888C3.23741 35.2252 4.71093 36.7137 6.34912 36.3199C7.69326 35.9968 9.75911 35.5009 11.6 35.0621C13.2883 35.8256 15.1617 36.25 17.1311 36.25C24.5524 36.25 30.5686 30.2338 30.5686 22.8125C30.5686 15.3912 24.5524 9.375 17.1311 9.375ZM6.38108 22.8125C6.38108 16.8754 11.194 12.0625 17.1311 12.0625C23.0682 12.0625 27.8811 16.8754 27.8811 22.8125C27.8811 28.7495 23.0682 33.5625 17.1311 33.5625C15.4098 33.5625 13.7866 33.159 12.3474 32.4425L11.9113 32.2254L11.4373 32.3383C9.78412 32.7317 7.8741 33.1897 6.44261 33.5335C6.7987 32.1376 7.27021 30.2881 7.67902 28.6815L7.80476 28.1871L7.57093 27.7339C6.81085 26.2607 6.38108 24.5888 6.38108 22.8125ZM26.0895 41.6252C22.5609 41.6252 19.3501 40.2651 16.9525 38.0408C17.012 38.0415 17.0715 38.0418 17.1312 38.0418C18.4175 38.0418 19.6667 37.8822 20.8598 37.5819C22.4078 38.4455 24.1912 38.9377 26.0895 38.9377C27.8107 38.9377 29.434 38.534 30.8732 37.8175L31.3093 37.6004L31.7832 37.7133C33.4344 38.1063 35.304 38.512 36.6909 38.8053C36.3774 37.4606 35.9497 35.6607 35.5416 34.0565L35.4158 33.5623L35.6496 33.109C36.4096 31.6359 36.8395 29.9639 36.8395 28.1877C36.8395 24.3987 34.8794 21.0677 31.9177 19.1532C31.5983 17.8574 31.1127 16.6269 30.4851 15.4855C35.7478 17.3064 39.527 22.3056 39.527 28.1877C39.527 30.2178 39.0758 32.146 38.2674 33.8744C38.7209 35.6804 39.1799 37.6368 39.4711 38.8968C39.8373 40.4825 38.4408 41.9176 36.842 41.5834C35.5391 41.3111 33.4921 40.8743 31.6219 40.4366C29.9333 41.2004 28.0594 41.6252 26.0895 41.6252Z" fill="#386641"/>
</svg>
