<svg width="400" height="100" viewBox="0 0 400 100" fill="none" xmlns="http://www.w3.org/2000/svg">
<path d="M99.7 43.028H102.76V46.52H103.048C103.096 46.28 103.336 45.848 103.768 45.224C104.2 44.576 104.86 43.964 105.748 43.388C106.636 42.812 107.74 42.524 109.06 42.524C110.452 42.524 111.604 42.848 112.516 43.496C113.452 44.144 114.148 44.84 114.604 45.584C115.06 46.328 115.288 46.796 115.288 46.988H115.576C115.912 46.148 116.572 45.2 117.556 44.144C118.564 43.064 120.1 42.524 122.164 42.524C123.7 42.524 124.984 42.92 126.016 43.712C127.048 44.48 127.804 45.476 128.284 46.7C128.788 47.924 129.04 49.232 129.04 50.624V62H125.98V50.912C125.98 49.088 125.5 47.708 124.54 46.772C123.604 45.836 122.44 45.368 121.048 45.368C119.608 45.368 118.384 45.86 117.376 46.844C116.392 47.804 115.9 49.16 115.9 50.912V62H112.84V50.912C112.84 49.088 112.36 47.708 111.4 46.772C110.464 45.836 109.3 45.368 107.908 45.368C106.468 45.368 105.244 45.86 104.236 46.844C103.252 47.804 102.76 49.16 102.76 50.912V62H99.7V43.028ZM145.886 62.252C143.942 62.252 142.298 61.784 140.954 60.848C139.634 59.912 138.65 58.688 138.002 57.176C137.354 55.664 137.03 54.068 137.03 52.388C137.03 50.684 137.354 49.088 138.002 47.6C138.65 46.088 139.646 44.864 140.99 43.928C142.334 42.992 143.978 42.524 145.922 42.524C148.466 42.524 150.494 43.376 152.006 45.08C153.542 46.784 154.31 49.232 154.31 52.424V53.288H140.126V53.54C140.126 54.596 140.366 55.592 140.846 56.528C141.326 57.464 141.998 58.22 142.862 58.796C143.726 59.372 144.722 59.66 145.85 59.66C147.074 59.66 148.13 59.348 149.018 58.724C149.906 58.1 150.566 57.26 150.998 56.204H154.058C153.554 57.932 152.606 59.372 151.214 60.524C149.846 61.676 148.07 62.252 145.886 62.252ZM151.25 51.092C151.154 48.932 150.626 47.372 149.666 46.412C148.706 45.452 147.446 44.972 145.886 44.972C144.182 44.972 142.826 45.536 141.818 46.664C140.81 47.792 140.27 49.268 140.198 51.092H151.25ZM162.482 35.108H165.578V46.448H165.866C166.346 45.344 167.126 44.42 168.206 43.676C169.286 42.908 170.606 42.524 172.166 42.524C173.774 42.524 175.118 42.908 176.198 43.676C177.278 44.42 178.07 45.416 178.574 46.664C179.102 47.888 179.366 49.22 179.366 50.66V62H176.27V51.056C176.27 49.184 175.778 47.756 174.794 46.772C173.834 45.788 172.55 45.296 170.942 45.296C169.406 45.296 168.122 45.812 167.09 46.844C166.082 47.876 165.578 49.28 165.578 51.056V62H162.482V35.108ZM196.258 62.252C194.338 62.252 192.706 61.796 191.362 60.884C190.042 59.948 189.046 58.736 188.374 57.248C187.702 55.736 187.366 54.116 187.366 52.388C187.366 50.66 187.702 49.052 188.374 47.564C189.046 46.052 190.042 44.84 191.362 43.928C192.706 42.992 194.338 42.524 196.258 42.524C198.178 42.524 199.798 42.992 201.118 43.928C202.462 44.84 203.458 46.052 204.106 47.564C204.778 49.076 205.114 50.684 205.114 52.388C205.114 54.092 204.778 55.7 204.106 57.212C203.434 58.724 202.426 59.948 201.082 60.884C199.762 61.796 198.154 62.252 196.258 62.252ZM196.258 59.588C197.434 59.588 198.454 59.264 199.318 58.616C200.206 57.968 200.878 57.104 201.334 56.024C201.79 54.92 202.018 53.696 202.018 52.352C202.018 50.288 201.502 48.572 200.47 47.204C199.438 45.836 198.034 45.152 196.258 45.152C195.058 45.152 194.014 45.476 193.126 46.124C192.262 46.772 191.602 47.648 191.146 48.752C190.69 49.832 190.462 51.032 190.462 52.352C190.462 54.416 190.978 56.144 192.01 57.536C193.042 58.904 194.458 59.588 196.258 59.588ZM219.347 64.628C218.963 65.54 218.591 66.284 218.231 66.86C217.895 67.46 217.331 68.024 216.539 68.552C215.747 69.08 214.715 69.344 213.443 69.344C212.771 69.344 212.051 69.248 211.283 69.056V66.752C211.859 66.848 212.363 66.896 212.795 66.896C213.587 66.896 214.223 66.74 214.703 66.428C215.183 66.14 215.555 65.756 215.819 65.276C216.107 64.796 216.443 64.1 216.827 63.188L217.691 61.064L210.671 43.028H213.911L219.203 57.644H219.419L224.963 43.028H228.203L219.347 64.628ZM235.509 43.028H238.569V46.52H238.857C238.905 46.28 239.145 45.848 239.577 45.224C240.009 44.576 240.669 43.964 241.557 43.388C242.445 42.812 243.549 42.524 244.869 42.524C246.261 42.524 247.413 42.848 248.325 43.496C249.261 44.144 249.957 44.84 250.413 45.584C250.869 46.328 251.097 46.796 251.097 46.988H251.385C251.721 46.148 252.381 45.2 253.365 44.144C254.373 43.064 255.909 42.524 257.973 42.524C259.509 42.524 260.793 42.92 261.825 43.712C262.857 44.48 263.613 45.476 264.093 46.7C264.597 47.924 264.849 49.232 264.849 50.624V62H261.789V50.912C261.789 49.088 261.309 47.708 260.349 46.772C259.413 45.836 258.249 45.368 256.857 45.368C255.417 45.368 254.193 45.86 253.185 46.844C252.201 47.804 251.709 49.16 251.709 50.912V62H248.649V50.912C248.649 49.088 248.169 47.708 247.209 46.772C246.273 45.836 245.109 45.368 243.717 45.368C242.277 45.368 241.053 45.86 240.045 46.844C239.061 47.804 238.569 49.16 238.569 50.912V62H235.509V43.028ZM273.849 43.028H276.945V62H273.849V43.028ZM275.361 39.5C274.785 39.5 274.305 39.308 273.921 38.924C273.537 38.516 273.345 38.036 273.345 37.484C273.345 36.932 273.537 36.464 273.921 36.08C274.305 35.672 274.785 35.468 275.361 35.468C275.937 35.468 276.417 35.672 276.801 36.08C277.209 36.464 277.413 36.932 277.413 37.484C277.413 38.036 277.209 38.516 276.801 38.924C276.417 39.308 275.937 39.5 275.361 39.5ZM286.302 43.028H289.398V46.448H289.686C290.166 45.344 290.946 44.42 292.026 43.676C293.106 42.908 294.426 42.524 295.986 42.524C297.594 42.524 298.938 42.908 300.018 43.676C301.098 44.42 301.89 45.416 302.394 46.664C302.922 47.888 303.186 49.22 303.186 50.66V62H300.09V51.056C300.09 49.184 299.598 47.756 298.614 46.772C297.654 45.788 296.394 45.296 294.834 45.296C293.178 45.296 291.858 45.836 290.874 46.916C289.89 47.972 289.398 49.352 289.398 51.056V62H286.302V43.028ZM320.079 62.252C318.159 62.252 316.527 61.796 315.183 60.884C313.863 59.948 312.867 58.736 312.195 57.248C311.523 55.736 311.187 54.116 311.187 52.388C311.187 50.66 311.523 49.052 312.195 47.564C312.867 46.052 313.863 44.84 315.183 43.928C316.527 42.992 318.159 42.524 320.079 42.524C321.999 42.524 323.619 42.992 324.939 43.928C326.283 44.84 327.279 46.052 327.927 47.564C328.599 49.076 328.935 50.684 328.935 52.388C328.935 54.092 328.599 55.7 327.927 57.212C327.255 58.724 326.247 59.948 324.903 60.884C323.583 61.796 321.975 62.252 320.079 62.252ZM320.079 59.588C321.255 59.588 322.275 59.264 323.139 58.616C324.027 57.968 324.699 57.104 325.155 56.024C325.611 54.92 325.839 53.696 325.839 52.352C325.839 50.288 325.323 48.572 324.291 47.204C323.259 45.836 321.855 45.152 320.079 45.152C318.879 45.152 317.835 45.476 316.947 46.124C316.083 46.772 315.423 47.648 314.967 48.752C314.511 49.832 314.283 51.032 314.283 52.352C314.283 54.416 314.799 56.144 315.831 57.536C316.863 58.904 318.279 59.588 320.079 59.588ZM343.167 64.628C342.783 65.54 342.411 66.284 342.051 66.86C341.715 67.46 341.151 68.024 340.359 68.552C339.567 69.08 338.535 69.344 337.263 69.344C336.591 69.344 335.871 69.248 335.103 69.056V66.752C335.679 66.848 336.183 66.896 336.615 66.896C337.407 66.896 338.043 66.74 338.523 66.428C339.003 66.14 339.375 65.756 339.639 65.276C339.927 64.796 340.263 64.1 340.647 63.188L341.511 61.064L334.491 43.028H337.731L343.023 57.644H343.239L348.783 43.028H352.023L343.167 64.628Z" fill="#FCF9F9"/>
<path d="M64.1312 34.375C56.7098 34.375 50.6937 40.3912 50.6937 47.8125C50.6937 49.8423 51.1446 51.7699 51.9526 53.4982C51.4974 55.2863 50.9889 57.28 50.655 58.5888C50.2375 60.2252 51.711 61.7137 53.3492 61.3199C54.6933 60.9968 56.7592 60.5009 58.6001 60.0621C60.2884 60.8256 62.1618 61.25 64.1312 61.25C71.5525 61.25 77.5687 55.2338 77.5687 47.8125C77.5687 40.3912 71.5525 34.375 64.1312 34.375ZM53.3812 47.8125C53.3812 41.8754 58.1941 37.0625 64.1312 37.0625C70.0682 37.0625 74.8812 41.8754 74.8812 47.8125C74.8812 53.7495 70.0682 58.5625 64.1312 58.5625C62.4098 58.5625 60.7866 58.159 59.3475 57.4425L58.9114 57.2254L58.4374 57.3383C56.7842 57.7317 54.8742 58.1897 53.4427 58.5335C53.7988 57.1376 54.2703 55.2881 54.6791 53.6815L54.8048 53.1871L54.571 52.7339C53.8109 51.2607 53.3812 49.5888 53.3812 47.8125ZM73.0895 66.6252C69.561 66.6252 66.3502 65.2651 63.9526 63.0408C64.0121 63.0415 64.0716 63.0418 64.1312 63.0418C65.4176 63.0418 66.6668 62.8822 67.8598 62.5819C69.4078 63.4455 71.1913 63.9377 73.0895 63.9377C74.8108 63.9377 76.434 63.534 77.8733 62.8175L78.3094 62.6004L78.7833 62.7133C80.4345 63.1063 82.3041 63.512 83.691 63.8053C83.3775 62.4606 82.9498 60.6607 82.5416 59.0565L82.4159 58.5623L82.6497 58.109C83.4097 56.6359 83.8395 54.9639 83.8395 53.1877C83.8395 49.3987 81.8794 46.0677 78.9178 44.1532C78.5984 42.8574 78.1128 41.6269 77.4852 40.4855C82.7479 42.3064 86.527 47.3056 86.527 53.1877C86.527 55.2178 86.0759 57.146 85.2675 58.8744C85.721 60.6804 86.18 62.6368 86.4711 63.8968C86.8373 65.4825 85.4409 66.9176 83.842 66.5834C82.5391 66.3111 80.4922 65.8743 78.622 65.4366C76.9334 66.2004 75.0595 66.6252 73.0895 66.6252Z" fill="#FCF9F9"/>
</svg>
